<svg xmlns="http://www.w3.org/2000/svg" width="900" height="900" viewBox="0 0 900 900" role="img" aria-label="Smart Blood Pressure Monitor with Large Cuff">
  <defs>
    <linearGradient id="bg" x1="0" x2="1" y1="0" y2="1">
      <stop offset="0" stop-color="#EAF4FF"/>
      <stop offset="1" stop-color="#FFFFFF"/>
    </linearGradient>
    <pattern id="grid" width="44" height="44" patternUnits="userSpaceOnUse">
      <path d="M 44 0 L 0 0 0 44" fill="none" stroke="#0B1D35" stroke-opacity="0.045" stroke-width="1"/>
    </pattern>
  </defs>
  <rect width="900" height="900" fill="url(#bg)"/>
  <rect width="900" height="900" fill="url(#grid)"/>
  <circle cx="735" cy="150" r="120" fill="#2878C8" opacity="0.12"/>
  <circle cx="150" cy="735" r="150" fill="#2878C8" opacity="0.10"/>
  <rect x="64" y="64" width="772" height="772" rx="44" fill="#fff" opacity="0.52" stroke="#0B1D35" stroke-opacity="0.10"/>
  <text x="88" y="96" font-size="20" font-weight="800" fill="#2878C8" font-family="Inter, Arial, sans-serif" letter-spacing="3">DS-SCD-109</text>
  <text x="88" y="132" font-size="40" font-weight="700" fill="#0B1D35" font-family="Inter, Arial, sans-serif">Smart Blood Pressure</text>
<text x="88" y="182" font-size="40" font-weight="700" fill="#0B1D35" font-family="Inter, Arial, sans-serif">Monitor with Large Cuff</text>
  <path d="M 340 230 H 560 Q 600 230 600 270 V 650 Q 600 690 560 690 H 340 Q 300 690 300 650 V 270 Q 300 230 340 230" fill="none" stroke="#2878C8" stroke-width="22" stroke-linecap="round" stroke-linejoin="round" opacity="0.78"/>
  <path d="M 340 230 H 560 Q 600 230 600 270 V 650 Q 600 690 560 690 H 340 Q 300 690 300 650 V 270 Q 300 230 340 230" fill="none" stroke="#0B1D35" stroke-width="5" stroke-linecap="round" stroke-linejoin="round" opacity="0.18"/>
  <rect x="88" y="728" width="724" height="74" rx="24" fill="#0B1D35" opacity="0.96"/>
  <text x="122" y="774" font-size="24" font-weight="700" fill="#fff" font-family="Inter, Arial, sans-serif">Smart Care Devices · MOQ 200 · FOB USD 19.8</text>
</svg>